# Blender 4.0.0 Release Candidate
# www.blender.org
mtllib NTM SMR model.mtl
o Cube
v -1.500000 0.000000 1.500000
v -1.437500 1.000000 1.437500
v -1.500000 0.000000 -1.500000
v -1.437500 1.000000 -1.437500
v 1.500000 0.000000 1.500000
v 1.437500 1.000000 1.437500
v 1.500000 0.000000 -1.500000
v 1.437500 1.000000 -1.437500
v -1.500000 0.000000 -0.500000
v -1.500000 0.000000 0.500000
v -1.437500 1.000000 0.500000
v -1.437500 1.000000 -0.500000
v 1.500000 0.000000 0.500000
v 1.500000 0.000000 -0.500000
v 1.437500 1.000000 -0.500000
v 1.437500 1.000000 0.500000
v 0.500000 0.000000 -1.500000
v -0.500000 0.000000 -1.500000
v -0.500000 1.000000 -1.437500
v 0.500000 1.000000 -1.437500
v -0.500000 0.000000 1.500000
v 0.500000 0.000000 1.500000
v 0.500000 1.000000 1.437500
v -0.500000 1.000000 1.437500
v 0.500000 0.000000 -0.500000
v -0.500000 0.000000 -0.500000
v 0.500000 0.000000 0.500000
v -0.500000 0.000000 0.500000
v -1.500000 1.000000 -0.500000
v -1.500000 1.000000 -1.500000
v 0.500000 1.000000 -1.500000
v 1.500000 1.000000 -1.500000
v 1.500000 1.000000 0.500000
v 1.500000 1.000000 1.500000
v -0.500000 1.000000 1.500000
v -1.500000 1.000000 1.500000
v -1.500000 1.000000 0.500000
v 1.500000 1.000000 -0.500000
v -0.500000 1.000000 -1.500000
v 0.500000 1.000000 1.500000
v 0.500000 0.937500 -0.500000
v 1.437500 0.937500 -0.500000
v 0.500000 0.937500 0.500000
v 1.437500 0.937500 0.500000
v -1.437500 0.937500 -0.500000
v -0.500000 0.937500 -0.500000
v -1.437500 0.937500 0.500000
v -0.500000 0.937500 0.500000
v 0.500000 0.937500 -1.437500
v -0.500000 0.937500 -1.437500
v 0.500000 0.937500 1.437500
v -0.500000 0.937500 1.437500
v -1.437500 0.937500 -1.437500
v 1.437500 0.937500 -1.437500
v 1.437500 0.937500 1.437500
v -1.437500 0.937500 1.437500
v -0.000000 0.937500 -1.207407
v 0.603703 0.937500 -1.045645
v 0.603703 7.000000 -1.045645
v 1.045645 0.937500 -0.603703
v 1.045645 7.000000 -0.603703
v 1.207407 0.937500 0.000000
v 1.207407 7.000000 0.000000
v 1.045645 0.937500 0.603703
v 0.603703 0.937500 1.045645
v -0.000000 0.937500 1.207407
v -0.603703 0.937500 1.045645
v -1.045645 0.937500 0.603703
v -1.045645 7.000000 0.603703
v -1.207407 0.937500 0.000000
v -1.045645 0.937500 -0.603703
v -0.603703 0.937500 -1.045645
v 0.000000 7.369644 -1.115499
v 0.231027 7.892399 -0.400151
v 0.426883 7.683012 -0.739383
v 0.557749 7.369644 -0.966050
v 0.000000 7.965925 0.000000
v 0.400151 7.892399 -0.231027
v 0.739383 7.683012 -0.426883
v 0.966050 7.369644 -0.557749
v 0.462055 7.892399 0.000000
v 0.853766 7.683012 0.000000
v 1.115498 7.369644 0.000000
v 0.400151 7.892399 0.231027
v 0.739383 7.683012 0.426883
v 0.966050 7.369644 0.557749
v 1.045645 7.000000 0.603703
v 0.231027 7.892399 0.400151
v 0.426883 7.683012 0.739383
v 0.557749 7.369644 0.966050
v 0.603703 7.000000 1.045645
v -0.000000 7.892399 0.462055
v -0.000000 7.683012 0.853766
v -0.000000 7.369644 1.115498
v 0.000000 7.000000 1.207407
v -0.231027 7.892399 0.400151
v -0.426883 7.683012 0.739383
v -0.557749 7.369644 0.966050
v -0.603703 7.000000 1.045645
v -0.400151 7.892399 0.231027
v -0.739383 7.683012 0.426883
v -0.966050 7.369644 0.557749
v -0.462055 7.892399 -0.000000
v -0.853766 7.683012 -0.000000
v -1.115498 7.369644 -0.000000
v -1.207407 7.000000 0.000000
v -0.400151 7.892399 -0.231027
v -0.739383 7.683012 -0.426883
v -0.966050 7.369644 -0.557749
v -1.045645 7.000000 -0.603703
v -0.231027 7.892399 -0.400151
v -0.426883 7.683012 -0.739383
v -0.557749 7.369644 -0.966050
v -0.603703 7.000000 -1.045645
v 0.000000 7.892399 -0.462055
v 0.000000 7.683012 -0.853766
v 0.000000 7.000000 -1.207407
v 0.884515 0.937500 -1.115485
v 1.000000 0.937500 -1.163320
v 1.115485 0.937500 -1.115485
v 1.163320 0.937500 -1.000000
v 1.115485 0.937500 -0.884515
v 1.000000 0.937500 -0.836680
v 0.884515 0.937500 -0.884515
v 0.836680 0.937500 -1.000000
v 0.836680 3.000000 -1.000000
v -1.115485 0.937500 0.884515
v -1.000000 0.937500 0.836680
v -0.884515 0.937500 0.884515
v -0.836680 0.937500 1.000000
v -0.884515 0.937500 1.115485
v -1.000000 0.937500 1.163320
v -1.115485 0.937500 1.115485
v -1.163320 0.937500 1.000000
v -1.163320 3.000000 1.000000
v 1.081660 3.115485 -1.081660
v 1.115485 3.000000 -1.115485
v 1.115485 3.115485 -1.000000
v 1.163320 3.000000 -1.000000
v 1.081660 3.115485 -0.918340
v 1.000000 3.115485 -0.884515
v 1.000000 3.000000 -0.836680
v 0.918340 3.115485 -0.918340
v 0.884515 3.000000 -0.884515
v 0.884515 3.115485 -1.000000
v 0.884515 3.000000 -1.115485
v 1.000000 3.163320 -1.000000
v 1.000000 3.115485 -1.115485
v 1.000000 3.000000 -1.163320
v -0.918340 3.115485 0.918340
v -0.884515 3.000000 0.884515
v -0.884515 3.115485 1.000000
v -0.836680 3.000000 1.000000
v -1.000000 3.115485 1.115485
v -1.000000 3.000000 1.163320
v -1.081660 3.115485 1.081660
v -1.115485 3.000000 1.115485
v -1.115485 3.115485 1.000000
v -1.115485 3.000000 0.884515
v -1.000000 3.115485 0.884515
v -1.000000 3.000000 0.836680
v -1.082216 2.884515 0.918896
v 0.918896 2.884515 -1.082216
v -1.000556 2.836680 1.000556
v 1.000556 2.836680 -1.000556
v -0.918896 2.884515 1.082216
v 1.082216 2.884515 -0.918896
v -0.885071 3.000000 1.116041
v 1.116041 3.000000 -0.885071
v -0.918896 3.115485 1.082216
v -1.000556 3.163320 1.000556
v -1.082216 3.115485 0.918896
v 0.918896 3.115485 -1.082216
vn -1.0000 -0.0000 -0.0000
vn -0.0000 -0.0000 -1.0000
vn 1.0000 -0.0000 -0.0000
vn -0.0000 -0.0000 1.0000
vn -0.0000 -1.0000 -0.0000
vn -0.0000 1.0000 -0.0000
vn -0.0000 0.1192 -0.9929
vn 0.4964 0.1192 -0.8599
vn 0.5000 -0.0000 -0.8660
vn 0.8599 0.1192 -0.4964
vn 0.8660 -0.0000 -0.5000
vn 0.9929 0.1192 -0.0000
vn 0.8599 0.1192 0.4964
vn 0.8660 -0.0000 0.5000
vn 0.4964 0.1192 0.8599
vn 0.5000 -0.0000 0.8660
vn -0.0000 0.1192 0.9929
vn -0.4964 0.1192 0.8599
vn -0.5000 -0.0000 0.8660
vn -0.8599 0.1192 0.4964
vn -0.8660 -0.0000 0.5000
vn -0.9929 0.1192 -0.0000
vn -0.8599 0.1192 -0.4964
vn -0.8660 -0.0000 -0.5000
vn -0.4964 0.1192 -0.8599
vn -0.5000 -0.0000 -0.8660
vn -0.0000 0.4384 -0.8988
vn -0.0000 0.7605 -0.6494
vn 0.3247 0.7605 -0.5624
vn 0.4494 0.4384 -0.7784
vn -0.0000 0.9393 -0.3430
vn 0.1715 0.9393 -0.2971
vn 0.5624 0.7605 -0.3247
vn 0.7784 0.4384 -0.4494
vn 0.2971 0.9393 -0.1715
vn 0.8988 0.4384 -0.0000
vn 0.3430 0.9393 -0.0000
vn 0.6494 0.7605 -0.0000
vn 0.2971 0.9393 0.1715
vn 0.5624 0.7605 0.3247
vn 0.7784 0.4384 0.4494
vn 0.3247 0.7605 0.5624
vn 0.4494 0.4384 0.7784
vn 0.1715 0.9393 0.2971
vn -0.0000 0.9393 0.3430
vn -0.0000 0.4384 0.8988
vn -0.0000 0.7605 0.6494
vn -0.4494 0.4384 0.7784
vn -0.1715 0.9393 0.2971
vn -0.3247 0.7605 0.5624
vn -0.5624 0.7605 0.3247
vn -0.7784 0.4384 0.4494
vn -0.2971 0.9393 0.1715
vn -0.6494 0.7605 -0.0000
vn -0.8988 0.4384 -0.0000
vn -0.3430 0.9393 -0.0000
vn -0.7784 0.4384 -0.4494
vn -0.2971 0.9393 -0.1715
vn -0.5624 0.7605 -0.3247
vn -0.4494 0.4384 -0.7784
vn -0.1715 0.9393 -0.2971
vn -0.3247 0.7605 -0.5624
vn -0.7071 -0.0000 -0.7071
vn -0.6947 0.1866 -0.6947
vn 0.0003 0.1863 -0.9825
vn -0.3827 -0.0000 -0.9239
vn 0.3827 -0.0000 -0.9239
vn 0.6947 0.1866 -0.6947
vn 0.9239 -0.0000 -0.3827
vn 0.9824 0.1868 -0.0006
vn 1.0000 -0.0000 -0.0006
vn 0.9103 0.1736 0.3757
vn 0.9243 -0.0001 0.3816
vn 0.3838 0.0001 0.9234
vn 0.3782 0.1720 0.9096
vn 0.0006 0.1863 0.9825
vn -0.3827 -0.0000 0.9239
vn -0.6947 0.1866 0.6947
vn -0.7071 -0.0000 0.7071
vn -0.9824 0.1869 -0.0003
vn -0.9239 -0.0000 0.3827
vn -0.9239 -0.0000 -0.3827
vn -0.3775 0.1737 -0.9096
vn -0.0003 0.1869 -0.9824
vn 0.7071 -0.0000 -0.7071
vn 0.9824 0.1866 0.0009
vn 0.9234 0.0001 0.3838
vn 0.9092 0.1729 0.3787
vn 0.3816 -0.0001 0.9243
vn 0.3752 0.1727 0.9107
vn -0.0009 0.1865 0.9825
vn -0.0006 -0.0000 1.0000
vn -0.9825 0.1863 0.0003
vn -0.9104 0.1719 -0.3764
vn 0.0007 0.6629 -0.7487
vn 0.5294 0.6630 -0.5294
vn 0.1999 0.9595 -0.1983
vn 0.7485 0.6632 -0.0005
vn 0.7145 0.6343 0.2951
vn 0.2973 0.6322 0.7155
vn 0.0005 0.6628 0.7488
vn -0.1992 0.9598 0.1976
vn -0.5294 0.6630 0.5294
vn -0.7485 0.6631 -0.0007
vn -0.7140 0.6339 -0.2973
vn -0.1551 0.9127 -0.3781
vn -0.3563 0.3563 -0.8637
vn -0.0005 0.6636 -0.7481
vn 0.6533 0.3827 -0.6533
vn 0.1970 0.9604 -0.1970
vn 0.2690 0.9248 -0.2690
vn 0.7483 0.6634 0.0010
vn 0.7137 0.6339 0.2981
vn 0.2943 0.6326 0.7164
vn -0.0010 0.6626 0.7490
vn -0.2006 0.9589 0.2006
vn -0.5298 0.6623 0.5298
vn -0.7491 0.6624 0.0005
vn -0.7169 0.6315 -0.2954
vn -0.2970 0.6350 -0.7132
vn -0.6533 -0.3827 -0.6533
vn -0.2706 -0.9239 -0.2706
vn 0.2706 -0.9239 0.2706
vn 0.6533 -0.3827 0.6533
vn 0.7071 -0.0008 0.7071
vn 0.7071 -0.0000 0.7071
vn 0.6533 0.3827 0.6533
vn 0.2706 0.9239 0.2706
vn -0.0006 1.0000 -0.0006
vn -0.2706 0.9239 -0.2706
vn -0.6533 0.3827 -0.6533
vt 0.125000 0.125000
vt 0.125000 0.250000
vt -0.000000 0.250000
vt -0.000000 0.125000
vt 0.250000 0.500000
vt 0.375000 0.500000
vt 0.375000 0.625000
vt 0.250000 0.625000
vt 0.375000 0.992188
vt 0.375000 0.875000
vt 0.382812 0.875000
vt 0.382812 0.992188
vt 0.390625 0.750000
vt 0.390625 0.632812
vt 0.398438 0.632812
vt 0.398438 0.750000
vt 0.382812 0.750000
vt 0.390625 0.875000
vt 0.250000 0.250000
vt 0.375000 0.250000
vt 0.375000 0.375000
vt 0.250000 0.375000
vt 0.375000 0.125000
vt 0.250000 0.125000
vt 0.000000 0.375000
vt 0.125000 0.375000
vt 0.125000 0.500000
vt 0.000000 0.500000
vt 0.390625 0.992188
vt 0.398438 0.875000
vt 0.398438 0.992188
vt 0.406250 0.750000
vt 0.406250 0.875000
vt 0.382812 0.632812
vt 0.375000 0.750000
vt 0.406250 0.632812
vt 0.125000 0.625000
vt 0.000000 0.625000
vt 0.007812 0.875000
vt 0.007812 0.992188
vt 0.000000 1.000000
vt 0.000000 0.875000
vt 0.250000 0.992188
vt 0.367188 0.992188
vt 0.375000 1.000000
vt 0.250000 1.000000
vt 0.367188 0.750000
vt 0.367188 0.632812
vt 0.125000 0.632812
vt 0.007812 0.632812
vt 0.007812 0.750000
vt 0.000000 0.750000
vt 0.367188 0.875000
vt 0.125000 0.992188
vt 0.125000 1.000000
vt 0.250000 0.632812
vt 0.125000 0.750000
vt 0.125000 0.875000
vt 0.250000 0.875000
vt 0.250000 0.750000
vt 0.375000 0.632812
vt 0.406250 0.992188
vt 0.640625 0.000000
vt 0.640625 0.757812
vt 0.562500 0.757812
vt 0.562500 0.000000
vt 0.484375 0.757812
vt 0.484375 0.000000
vt 0.406250 0.757812
vt 0.406250 0.000000
vt 0.875000 0.000000
vt 0.875000 0.757812
vt 0.796875 0.757812
vt 0.796875 0.000000
vt 0.718750 0.757812
vt 0.718750 0.000000
vt 0.637632 0.805265
vt 0.629165 0.855590
vt 0.573927 0.855590
vt 0.565460 0.805265
vt 0.351562 0.062500
vt 0.289062 0.062500
vt 0.343750 0.031250
vt 0.617188 0.906250
vt 0.585938 0.906250
vt 0.559514 0.805265
vt 0.551047 0.855590
vt 0.495809 0.855590
vt 0.487342 0.805265
vt 0.320312 0.007812
vt 0.539062 0.906250
vt 0.507812 0.906250
vt 0.481395 0.805265
vt 0.409223 0.805265
vt 0.472928 0.855590
vt 0.460938 0.906250
vt 0.429688 0.906250
vt 0.417690 0.855590
vt 0.289062 0.000000
vt 0.863452 0.855763
vt 0.851562 0.906250
vt 0.820312 0.906250
vt 0.808253 0.855763
vt 0.871913 0.805473
vt 0.799792 0.805473
vt 0.289062 0.125000
vt 0.320312 0.117188
vt 0.793850 0.805473
vt 0.785388 0.855763
vt 0.730189 0.855763
vt 0.721728 0.805473
vt 0.343750 0.093750
vt 0.773438 0.906250
vt 0.742188 0.906250
vt 0.715786 0.805473
vt 0.643665 0.805473
vt 0.707325 0.855763
vt 0.695312 0.906250
vt 0.664062 0.906250
vt 0.652126 0.855763
vt 0.637647 0.805318
vt 0.565471 0.805318
vt 0.629180 0.855646
vt 0.573938 0.855646
vt 0.559524 0.805318
vt 0.551056 0.855646
vt 0.495815 0.855646
vt 0.487347 0.805318
vt 0.481400 0.805318
vt 0.472933 0.855646
vt 0.417691 0.855646
vt 0.409223 0.805318
vt 0.872043 0.805389
vt 0.799860 0.805389
vt 0.863575 0.855722
vt 0.808328 0.855722
vt 0.793913 0.805389
vt 0.721729 0.805389
vt 0.785444 0.855722
vt 0.730198 0.855722
vt 0.715782 0.805389
vt 0.707314 0.855722
vt 0.652067 0.855722
vt 0.643599 0.805389
vt 0.000000 0.031278
vt 0.257738 0.031278
vt 0.257738 0.046898
vt 0.000000 0.046898
vt 0.257738 0.062519
vt 0.000000 0.062519
vt 0.257738 0.078139
vt 0.000000 0.078139
vt 0.257738 0.093669
vt 0.000000 0.093759
vt 0.257738 0.109380
vt -0.000000 0.109380
vt 0.257738 0.125000
vt -0.000000 0.125000
vt 0.000000 0.000037
vt 0.257738 0.000037
vt 0.257738 0.015658
vt 0.000000 0.015658
vt 0.000000 0.093750
vt 0.257813 0.093750
vt 0.257813 0.109375
vt -0.000000 0.109375
vt 0.257813 0.125000
vt -0.000000 0.125000
vt 0.000000 -0.000000
vt 0.257813 -0.000000
vt 0.257813 0.015625
vt 0.000000 0.015625
vt 0.257813 0.031341
vt 0.000000 0.031250
vt 0.257813 0.046875
vt 0.000000 0.046875
vt 0.257813 0.062500
vt 0.000000 0.062500
vt 0.257813 0.078125
vt -0.000000 0.078125
vt 0.273190 0.049186
vt 0.273190 0.060231
vt 0.287802 0.054708
vt 0.273190 0.064806
vt 0.273190 0.075851
vt 0.287802 0.070329
vt 0.273192 0.080413
vt 0.273202 0.091458
vt 0.287808 0.085923
vt 0.273179 0.096034
vt 0.273188 0.107079
vt 0.287795 0.101544
vt 0.273190 0.111667
vt 0.287802 0.117190
vt 0.273190 0.122712
vt 0.273190 0.002325
vt 0.287802 0.007847
vt 0.273190 0.013370
vt 0.273190 0.017945
vt 0.287791 0.023495
vt 0.273204 0.029081
vt 0.273177 0.033656
vt 0.287812 0.039116
vt 0.273190 0.044611
vt 0.273270 0.111663
vt 0.273270 0.122712
vt 0.287969 0.117150
vt 0.273270 0.002288
vt 0.273270 0.013337
vt 0.287969 0.007850
vt 0.273268 0.017926
vt 0.273272 0.029066
vt 0.287903 0.023581
vt 0.273268 0.033642
vt 0.273272 0.044600
vt 0.287868 0.039207
vt 0.273270 0.049163
vt 0.287803 0.054725
vt 0.273270 0.060212
vt 0.273270 0.064788
vt 0.287803 0.070275
vt 0.273270 0.075837
vt 0.273270 0.080413
vt 0.287862 0.085819
vt 0.273256 0.091371
vt 0.273283 0.095947
vt 0.287910 0.101444
vt 0.273270 0.107087
vt 0.906244 0.000098
vt 0.906250 0.351562
vt 0.890625 0.351562
vt 0.890622 0.000000
vt 0.875000 0.351562
vt 0.875000 0.000000
vt 0.999977 0.000000
vt 1.000000 0.351562
vt 0.984375 0.351562
vt 0.984355 0.000000
vt 0.968750 0.351562
vt 0.968733 0.000000
vt 0.953125 0.351562
vt 0.953111 0.000000
vt 0.937500 0.351562
vt 0.937488 0.000000
vt 0.921875 0.351562
vt 0.921866 0.000000
s 1
usemtl Material.002
f 9/1/1 29/2/1 30/3/1 3/4/1
f 17/1/2 31/2/2 32/3/2 7/4/2
f 13/1/3 33/2/3 34/3/3 5/4/3
f 21/1/4 35/2/4 36/3/4 1/4/4
f 27/5/5 13/6/5 5/7/5 22/8/5
f 2/9/2 24/10/2 52/11/2 56/12/2
f 15/13/1 8/14/1 54/15/1 42/16/1
f 20/11/4 19/17/4 50/13/4 49/18/4
f 17/19/5 7/20/5 14/21/5 25/22/5
f 25/22/5 14/21/5 13/6/5 27/5/5
f 7/23/3 32/20/3 38/19/3 14/24/3
f 14/24/3 38/19/3 33/2/3 13/1/3
f 1/23/1 36/20/1 37/19/1 10/24/1
f 10/24/1 37/19/1 29/2/1 9/1/1
f 9/25/5 26/26/5 28/27/5 10/28/5
f 26/26/5 25/22/5 27/5/5 28/27/5
f 3/3/5 18/2/5 26/26/5 9/25/5
f 18/2/5 17/19/5 25/22/5 26/26/5
f 6/29/1 16/18/1 44/30/1 55/31/1
f 12/30/3 11/16/3 47/32/3 45/33/3
f 19/17/4 4/34/4 53/14/4 50/13/4
f 8/12/4 20/11/4 49/18/4 54/29/4
f 24/10/2 23/35/2 51/17/2 52/11/2
f 11/16/3 2/15/3 56/36/3 47/32/3
f 10/28/5 28/27/5 21/37/5 1/38/5
f 28/27/5 27/5/5 22/8/5 21/37/5
f 5/23/4 34/20/4 40/19/4 22/24/4
f 22/24/4 40/19/4 35/2/4 21/1/4
f 3/23/2 30/20/2 39/19/2 18/24/2
f 18/24/2 39/19/2 31/2/2 17/1/2
f 12/39/6 4/40/6 30/41/6 29/42/6
f 20/43/6 8/44/6 32/45/6 31/46/6
f 16/47/6 6/48/6 34/7/6 33/35/6
f 24/49/6 2/50/6 36/38/6 35/37/6
f 2/50/6 11/51/6 37/52/6 36/38/6
f 11/51/6 12/39/6 29/42/6 37/52/6
f 8/44/6 15/53/6 38/10/6 32/45/6
f 15/53/6 16/47/6 33/35/6 38/10/6
f 4/40/6 19/54/6 39/55/6 30/41/6
f 19/54/6 20/43/6 31/46/6 39/55/6
f 6/48/6 23/56/6 40/8/6 34/7/6
f 23/56/6 24/49/6 35/37/6 40/8/6
f 48/57/6 47/51/6 56/50/6 52/49/6
f 50/54/6 53/40/6 45/39/6 46/58/6
f 46/58/6 45/39/6 47/51/6 48/57/6
f 42/53/6 41/59/6 43/60/6 44/47/6
f 41/59/6 46/58/6 48/57/6 43/60/6
f 54/44/6 49/43/6 41/59/6 42/53/6
f 49/43/6 50/54/6 46/58/6 41/59/6
f 44/47/6 43/60/6 51/56/6 55/48/6
f 43/60/6 48/57/6 52/49/6 51/56/6
f 23/35/2 6/61/2 55/34/2 51/17/2
f 4/31/3 12/30/3 45/33/3 53/62/3
f 16/18/1 15/13/1 42/16/1 44/30/1
f 57/63/2 117/64/7 59/65/8 58/66/9
f 58/66/9 59/65/8 61/67/10 60/68/11
f 60/68/11 61/67/10 63/69/12 62/70/3
f 62/71/3 63/72/12 87/73/13 64/74/14
f 64/74/14 87/73/13 91/75/15 65/76/16
f 65/76/16 91/75/15 95/64/17 66/63/4
f 66/63/4 95/64/17 99/65/18 67/66/19
f 67/66/19 99/65/18 69/67/20 68/68/21
f 68/68/21 69/67/20 106/69/22 70/70/1
f 70/71/1 106/72/22 110/73/23 71/74/24
f 71/74/24 110/73/23 114/75/25 72/76/26
f 72/76/26 114/75/25 117/64/7 57/63/2
f 73/77/27 116/78/28 75/79/29 76/80/30
f 115/81/31 77/82/6 74/83/32
f 117/64/7 73/77/27 76/80/30 59/65/8
f 116/78/28 115/84/31 74/85/32 75/79/29
f 76/86/30 75/87/29 79/88/33 80/89/34
f 74/83/32 77/82/6 78/90/35
f 59/65/8 76/86/30 80/89/34 61/67/10
f 75/87/29 74/91/32 78/92/35 79/88/33
f 61/67/10 80/93/34 83/94/36 63/69/12
f 79/95/33 78/96/35 81/97/37 82/98/38
f 80/93/34 79/95/33 82/98/38 83/94/36
f 78/90/35 77/82/6 81/99/37
f 82/100/38 81/101/37 84/102/39 85/103/40
f 83/104/36 82/100/38 85/103/40 86/105/41
f 81/106/37 77/82/6 84/107/39
f 63/72/12 83/104/36 86/105/41 87/73/13
f 86/108/41 85/109/40 89/110/42 90/111/43
f 84/107/39 77/82/6 88/112/44
f 87/73/13 86/108/41 90/111/43 91/75/15
f 85/109/40 84/113/39 88/114/44 89/110/42
f 88/112/44 77/82/6 92/81/45
f 91/75/15 90/115/43 94/116/46 95/64/17
f 89/117/42 88/118/44 92/119/45 93/120/47
f 90/115/43 89/117/42 93/120/47 94/116/46
f 95/64/17 94/121/46 98/122/48 99/65/18
f 93/123/47 92/84/45 96/85/49 97/124/50
f 94/121/46 93/123/47 97/124/50 98/122/48
f 92/81/45 77/82/6 96/83/49
f 98/125/48 97/126/50 101/127/51 102/128/52
f 96/83/49 77/82/6 100/90/53
f 99/65/18 98/125/48 102/128/52 69/67/20
f 97/126/50 96/91/49 100/92/53 101/127/51
f 102/129/52 101/130/51 104/131/54 105/132/55
f 100/90/53 77/82/6 103/99/56
f 69/67/20 102/129/52 105/132/55 106/69/22
f 101/130/51 100/96/53 103/97/56 104/131/54
f 106/72/22 105/133/55 109/134/57 110/73/23
f 104/135/54 103/101/56 107/102/58 108/136/59
f 105/133/55 104/135/54 108/136/59 109/134/57
f 103/106/56 77/82/6 107/107/58
f 110/73/23 109/137/57 113/138/60 114/75/25
f 108/139/59 107/113/58 111/114/61 112/140/62
f 109/137/57 108/139/59 112/140/62 113/138/60
f 107/107/58 77/82/6 111/112/61
f 113/141/60 112/142/62 116/143/28 73/144/27
f 111/112/61 77/82/6 115/81/31
f 114/75/25 113/141/60 73/144/27 117/64/7
f 112/142/62 111/118/61 115/119/31 116/143/28
f 118/145/63 146/146/64 149/147/65 119/148/66
f 119/148/67 149/147/65 137/149/68 120/150/67
f 120/150/69 137/149/68 139/151/70 121/152/71
f 121/152/71 139/151/70 169/153/72 122/154/73
f 122/154/74 169/153/75 142/155/76 123/156/74
f 123/156/77 142/155/76 144/157/78 124/158/79
f 124/159/79 144/160/78 126/161/80 125/162/81
f 125/162/82 126/161/80 146/146/64 118/145/63
f 127/163/66 159/164/83 161/165/84 128/166/2
f 128/166/2 161/165/84 151/167/68 129/168/85
f 129/169/85 151/170/68 153/171/86 130/172/69
f 130/172/87 153/171/86 168/173/88 131/174/87
f 131/174/89 168/173/90 155/175/91 132/176/92
f 132/176/92 155/175/91 157/177/78 133/178/77
f 133/178/81 157/177/78 135/179/93 134/180/1
f 134/180/1 135/179/93 159/164/94 127/163/82
f 149/147/65 148/181/95 136/182/96 137/149/68
f 148/181/95 147/183/97 136/182/96
f 137/149/68 136/184/96 138/185/98 139/151/70
f 136/184/96 147/186/97 138/185/98
f 139/151/70 138/187/98 140/188/99 169/153/72
f 138/187/98 147/189/97 140/188/99
f 169/153/75 140/190/100 141/191/101 142/155/76
f 140/190/100 147/192/102 141/191/101
f 141/193/101 147/194/102 143/195/103
f 142/155/76 141/193/101 143/195/103 144/157/78
f 143/196/103 147/197/102 145/198/104
f 144/160/78 143/196/103 145/198/104 126/161/80
f 145/199/104 147/200/102 173/201/105
f 126/161/80 145/199/104 173/201/105 146/146/64
f 173/202/106 147/203/97 148/204/95
f 146/146/64 173/202/107 148/204/95 149/147/65
f 161/165/84 160/205/108 150/206/109 151/167/68
f 160/205/108 171/207/110 150/206/111
f 151/170/68 150/208/109 152/209/112 153/171/86
f 150/208/111 171/210/110 152/209/112
f 153/171/86 152/211/112 170/212/113 168/173/88
f 152/211/112 171/213/110 170/212/113
f 168/173/90 170/214/114 154/215/115 155/175/91
f 170/214/114 171/216/116 154/215/115
f 154/217/115 171/218/116 156/219/117
f 155/175/91 154/217/115 156/219/117 157/177/78
f 156/220/117 171/221/116 158/222/118
f 157/177/78 156/220/117 158/222/118 135/179/93
f 158/223/118 171/224/116 172/225/119
f 135/179/93 158/223/118 172/225/119 159/164/94
f 172/226/120 171/227/110 160/228/108
f 159/164/83 172/226/120 160/228/108 161/165/84
f 159/229/63 146/230/63 163/231/121 162/232/121
f 162/232/122 163/231/122 165/233/5 164/234/5
f 164/235/5 165/236/5 167/237/123 166/238/123
f 166/238/124 167/237/124 169/239/125 168/240/126
f 168/240/126 169/239/125 140/241/127 170/242/127
f 170/242/128 140/241/128 147/243/129 171/244/6
f 171/244/6 147/243/129 173/245/130 172/246/130
f 172/246/131 173/245/131 146/230/63 159/229/63
