# Blender 4.0.0 Release Candidate
# www.blender.org
mtllib NTM SMR model.mtl
o Cube
v -1.500000 0.000000 1.500000
v -1.437500 1.000000 1.437500
v -1.500000 0.000000 -1.500000
v -1.437500 1.000000 -1.437500
v 1.500000 0.000000 1.500000
v 1.437500 1.000000 1.437500
v 1.500000 0.000000 -1.500000
v 1.437500 1.000000 -1.437500
v -1.500000 0.000000 -0.500000
v -1.500000 0.000000 0.500000
v -1.437500 1.000000 0.500000
v -1.437500 1.000000 -0.500000
v 1.500000 0.000000 0.500000
v 1.500000 0.000000 -0.500000
v 1.437500 1.000000 -0.500000
v 1.437500 1.000000 0.500000
v 0.500000 0.000000 -1.500000
v -0.500000 0.000000 -1.500000
v -0.500000 1.000000 -1.437500
v 0.500000 1.000000 -1.437500
v -0.500000 0.000000 1.500000
v 0.500000 0.000000 1.500000
v 0.500000 1.000000 1.437500
v -0.500000 1.000000 1.437500
v 0.500000 0.000000 -0.500000
v -0.500000 0.000000 -0.500000
v 0.500000 0.000000 0.500000
v -0.500000 0.000000 0.500000
v -1.500000 1.000000 -0.500000
v -1.500000 1.000000 -1.500000
v 0.500000 1.000000 -1.500000
v 1.500000 1.000000 -1.500000
v 1.500000 1.000000 0.500000
v 1.500000 1.000000 1.500000
v -0.500000 1.000000 1.500000
v -1.500000 1.000000 1.500000
v -1.500000 1.000000 0.500000
v 1.500000 1.000000 -0.500000
v -0.500000 1.000000 -1.500000
v 0.500000 1.000000 1.500000
v 0.500000 0.937500 -0.500000
v 1.437500 0.937500 -0.500000
v 0.500000 0.937500 0.500000
v 1.437500 0.937500 0.500000
v -1.437500 0.937500 -0.500000
v -0.500000 0.937500 -0.500000
v -1.437500 0.937500 0.500000
v -0.500000 0.937500 0.500000
v 0.500000 0.937500 -1.437500
v -0.500000 0.937500 -1.437500
v 0.500000 0.937500 1.437500
v -0.500000 0.937500 1.437500
v -1.437500 0.937500 -1.437500
v 1.437500 0.937500 -1.437500
v 1.437500 0.937500 1.437500
v -1.437500 0.937500 1.437500
v -0.000000 0.937500 -1.207407
v 0.603703 0.937500 -1.045645
v 0.603703 7.000000 -1.045645
v 1.045645 0.937500 -0.603703
v 1.045645 7.000000 -0.603703
v 1.207407 0.937500 0.000000
v 1.207407 7.000000 0.000000
v 1.045645 0.937500 0.603703
v 0.603703 0.937500 1.045645
v -0.000000 0.937500 1.207407
v -0.603703 0.937500 1.045645
v -1.045645 0.937500 0.603703
v -1.045645 7.000000 0.603703
v -1.207407 0.937500 0.000000
v -1.045645 0.937500 -0.603703
v -0.603703 0.937500 -1.045645
v 0.000000 7.369644 -1.115499
v 0.231027 7.892399 -0.400151
v 0.426883 7.683012 -0.739383
v 0.557749 7.369644 -0.966050
v 0.000000 7.965925 0.000000
v 0.400151 7.892399 -0.231027
v 0.739383 7.683012 -0.426883
v 0.966050 7.369644 -0.557749
v 0.462055 7.892399 0.000000
v 0.853766 7.683012 0.000000
v 1.115498 7.369644 0.000000
v 0.400151 7.892399 0.231027
v 0.739383 7.683012 0.426883
v 0.966050 7.369644 0.557749
v 1.045645 7.000000 0.603703
v 0.231027 7.892399 0.400151
v 0.426883 7.683012 0.739383
v 0.557749 7.369644 0.966050
v 0.603703 7.000000 1.045645
v -0.000000 7.892399 0.462055
v -0.000000 7.683012 0.853766
v -0.000000 7.369644 1.115498
v 0.000000 7.000000 1.207407
v -0.231027 7.892399 0.400151
v -0.426883 7.683012 0.739383
v -0.557749 7.369644 0.966050
v -0.603703 7.000000 1.045645
v -0.400151 7.892399 0.231027
v -0.739383 7.683012 0.426883
v -0.966050 7.369644 0.557749
v -0.462055 7.892399 -0.000000
v -0.853766 7.683012 -0.000000
v -1.115498 7.369644 -0.000000
v -1.207407 7.000000 0.000000
v -0.400151 7.892399 -0.231027
v -0.739383 7.683012 -0.426883
v -0.966050 7.369644 -0.557749
v -1.045645 7.000000 -0.603703
v -0.231027 7.892399 -0.400151
v -0.426883 7.683012 -0.739383
v -0.557749 7.369644 -0.966050
v -0.603703 7.000000 -1.045645
v 0.000000 7.892399 -0.462055
v 0.000000 7.683012 -0.853766
v 0.000000 7.000000 -1.207407
v 0.884515 0.937500 -1.115485
v 1.000000 0.937500 -1.163320
v 1.115485 0.937500 -1.115485
v 1.163320 0.937500 -1.000000
v 1.115485 0.937500 -0.884515
v 1.000000 0.937500 -0.836680
v 0.884515 0.937500 -0.884515
v 0.836680 0.937500 -1.000000
v 0.836680 3.000000 -1.000000
v -1.115485 0.937500 0.884515
v -1.000000 0.937500 0.836680
v -0.884515 0.937500 0.884515
v -0.836680 0.937500 1.000000
v -0.884515 0.937500 1.115485
v -1.000000 0.937500 1.163320
v -1.115485 0.937500 1.115485
v -1.163320 0.937500 1.000000
v -1.163320 3.000000 1.000000
v 1.081660 3.115485 -1.081660
v 1.115485 3.000000 -1.115485
v 1.115485 3.115485 -1.000000
v 1.163320 3.000000 -1.000000
v 1.081660 3.115485 -0.918340
v 1.000000 3.115485 -0.884515
v 1.000000 3.000000 -0.836680
v 0.918340 3.115485 -0.918340
v 0.884515 3.000000 -0.884515
v 0.884515 3.115485 -1.000000
v 0.884515 3.000000 -1.115485
v 1.000000 3.163320 -1.000000
v 1.000000 3.115485 -1.115485
v 1.000000 3.000000 -1.163320
v -0.918340 3.115485 0.918340
v -0.884515 3.000000 0.884515
v -0.884515 3.115485 1.000000
v -0.836680 3.000000 1.000000
v -1.000000 3.115485 1.115485
v -1.000000 3.000000 1.163320
v -1.081660 3.115485 1.081660
v -1.115485 3.000000 1.115485
v -1.115485 3.115485 1.000000
v -1.115485 3.000000 0.884515
v -1.000000 3.115485 0.884515
v -1.000000 3.000000 0.836680
v -1.082216 2.884515 0.918896
v 0.918896 2.884515 -1.082216
v -1.000556 2.836680 1.000556
v 1.000556 2.836680 -1.000556
v -0.918896 2.884515 1.082216
v 1.082216 2.884515 -0.918896
v -0.885071 3.000000 1.116041
v 1.116041 3.000000 -0.885071
v -0.918896 3.115485 1.082216
v -1.000556 3.163320 1.000556
v -1.082216 3.115485 0.918896
v 0.918896 3.115485 -1.082216
vn -1.0000 -0.0000 -0.0000
vn -0.0000 -0.0000 -1.0000
vn 1.0000 -0.0000 -0.0000
vn -0.0000 -0.0000 1.0000
vn -0.0000 -1.0000 -0.0000
vn -0.0000 1.0000 -0.0000
vn -0.0000 0.1192 -0.9929
vn 0.5000 -0.0000 -0.8660
vn 0.4964 0.1192 -0.8599
vn 0.8660 -0.0000 -0.5000
vn 0.8599 0.1192 -0.4964
vn 0.9929 0.1192 -0.0000
vn 0.8660 -0.0000 0.5000
vn 0.8599 0.1192 0.4964
vn 0.5000 -0.0000 0.8660
vn 0.4964 0.1192 0.8599
vn -0.0000 0.1192 0.9929
vn -0.5000 -0.0000 0.8660
vn -0.4964 0.1192 0.8599
vn -0.8660 -0.0000 0.5000
vn -0.8599 0.1192 0.4964
vn -0.9929 0.1192 -0.0000
vn -0.8660 -0.0000 -0.5000
vn -0.8599 0.1192 -0.4964
vn -0.5000 -0.0000 -0.8660
vn -0.4964 0.1192 -0.8599
vn -0.0000 0.7605 -0.6494
vn 0.4494 0.4384 -0.7784
vn -0.0000 0.4384 -0.8988
vn -0.0000 0.9393 -0.3430
vn 0.1715 0.9393 -0.2971
vn 0.3247 0.7605 -0.5624
vn 0.7784 0.4384 -0.4494
vn 0.2971 0.9393 -0.1715
vn 0.5624 0.7605 -0.3247
vn 0.6494 0.7605 -0.0000
vn 0.8988 0.4384 -0.0000
vn 0.3430 0.9393 -0.0000
vn 0.2971 0.9393 0.1715
vn 0.5624 0.7605 0.3247
vn 0.7784 0.4384 0.4494
vn 0.4494 0.4384 0.7784
vn 0.1715 0.9393 0.2971
vn 0.3247 0.7605 0.5624
vn -0.0000 0.9393 0.3430
vn -0.0000 0.7605 0.6494
vn -0.0000 0.4384 0.8988
vn -0.3247 0.7605 0.5624
vn -0.4494 0.4384 0.7784
vn -0.1715 0.9393 0.2971
vn -0.7784 0.4384 0.4494
vn -0.2971 0.9393 0.1715
vn -0.5624 0.7605 0.3247
vn -0.8988 0.4384 -0.0000
vn -0.3430 0.9393 -0.0000
vn -0.6494 0.7605 -0.0000
vn -0.5624 0.7605 -0.3247
vn -0.7784 0.4384 -0.4494
vn -0.2971 0.9393 -0.1715
vn -0.3247 0.7605 -0.5624
vn -0.4494 0.4384 -0.7784
vn -0.1715 0.9393 -0.2971
vn -0.6950 0.1862 -0.6945
vn -0.3827 -0.0000 -0.9239
vn -0.7071 -0.0000 -0.7071
vn 0.0003 0.1862 -0.9825
vn 0.7071 -0.0000 -0.7071
vn 0.3827 -0.0000 -0.9239
vn 0.6947 0.1866 -0.6947
vn 1.0000 -0.0001 -0.0000
vn 0.6966 0.1864 0.6928
vn 0.7071 -0.0001 0.7071
vn 0.0009 0.1864 0.9825
vn -0.7071 -0.0000 0.7071
vn -0.6947 0.1866 0.6947
vn -0.9239 -0.0000 0.3827
vn -0.9824 0.1866 -0.0000
vn -0.9239 -0.0000 -0.3827
vn -0.3774 0.1737 -0.9096
vn -0.0000 0.1866 -0.9824
vn 0.9239 -0.0000 -0.3827
vn 0.9824 0.1866 0.0011
vn 0.9239 -0.0000 0.3827
vn 0.6930 0.1865 0.6964
vn -0.0000 -0.0001 1.0000
vn -0.0012 0.1865 0.9825
vn -0.9825 0.1862 0.0003
vn 0.0013 0.6632 -0.7485
vn 0.1999 0.9595 -0.1983
vn 0.5294 0.6630 -0.5294
vn 0.7484 0.6632 -0.0004
vn 0.9824 0.1866 -0.0011
vn 0.7138 0.6348 0.2957
vn 0.2971 0.6323 0.7155
vn -0.1992 0.9598 0.1976
vn -0.0000 0.6630 0.7486
vn -0.5294 0.6630 0.5294
vn -0.7485 0.6631 -0.0008
vn -0.7130 0.6346 -0.2982
vn -0.2948 0.6328 -0.7160
vn -0.0006 0.6637 -0.7480
vn 0.1970 0.9604 -0.1970
vn 0.2690 0.9248 -0.2690
vn 0.7482 0.6634 0.0010
vn 0.7134 0.6341 0.2983
vn 0.2942 0.6326 0.7164
vn -0.2006 0.9589 0.2006
vn -0.0012 0.6627 0.7489
vn -0.5298 0.6623 0.5298
vn -0.7489 0.6627 0.0012
vn -0.7169 0.6316 -0.2952
vn -0.9102 0.1714 -0.3770
vn -0.2978 0.6357 -0.7122
vn -0.6533 -0.3827 -0.6533
vn -0.2706 -0.9239 -0.2706
vn 0.2706 -0.9239 0.2706
vn 0.6533 -0.3827 0.6533
vn 0.7071 -0.0000 0.7071
vn 0.6533 0.3827 0.6533
vn 0.2706 0.9239 0.2706
vn -0.0006 1.0000 -0.0006
vn -0.4996 0.7077 -0.4996
vn -0.5000 0.7071 -0.5000
vn 0.6533 0.3827 -0.6533
vn 0.7071 -0.0008 0.7071
vt 0.125000 0.250000
vt -0.000000 0.125000
vt 0.125000 0.125000
vt 0.375000 0.500000
vt 0.250000 0.625000
vt 0.250000 0.500000
vt 0.375000 0.875000
vt 0.382812 0.992188
vt 0.375000 0.992188
vt 0.390625 0.632812
vt 0.398438 0.750000
vt 0.390625 0.750000
vt 0.382812 0.750000
vt 0.390625 0.875000
vt 0.382812 0.875000
vt 0.375000 0.250000
vt 0.250000 0.375000
vt 0.250000 0.250000
vt 0.375000 0.375000
vt 0.250000 0.125000
vt 0.375000 0.125000
vt 0.125000 0.375000
vt 0.000000 0.500000
vt 0.000000 0.375000
vt 0.125000 0.500000
vt 0.000000 0.250000
vt 0.398438 0.992188
vt 0.390625 0.992188
vt 0.406250 0.875000
vt 0.398438 0.875000
vt 0.382812 0.632812
vt 0.375000 0.750000
vt 0.398438 0.632812
vt 0.406250 0.750000
vt 0.000000 0.625000
vt 0.125000 0.625000
vt 0.007812 0.992188
vt 0.000000 0.875000
vt 0.007812 0.875000
vt 0.367188 0.992188
vt 0.250000 1.000000
vt 0.250000 0.992188
vt 0.367188 0.632812
vt 0.367188 0.750000
vt 0.007812 0.632812
vt 0.125000 0.632812
vt 0.000000 0.750000
vt 0.007812 0.750000
vt 0.375000 1.000000
vt 0.367188 0.875000
vt 0.125000 1.000000
vt 0.000000 1.000000
vt 0.125000 0.992188
vt 0.375000 0.625000
vt 0.250000 0.632812
vt 0.125000 0.750000
vt 0.125000 0.875000
vt 0.250000 0.875000
vt 0.250000 0.750000
vt 0.375000 0.632812
vt 0.406250 0.992188
vt 0.640625 0.757812
vt 0.562500 0.000000
vt 0.640625 0.000000
vt 0.562500 0.757812
vt 0.484375 0.000000
vt 0.484375 0.757812
vt 0.406250 0.000000
vt 0.875000 0.757812
vt 0.796875 0.000000
vt 0.875000 0.000000
vt 0.796875 0.757812
vt 0.718750 0.000000
vt 0.718750 0.757812
vt 0.629165 0.855590
vt 0.565460 0.805265
vt 0.637632 0.805265
vt 0.351562 0.062500
vt 0.289062 0.062500
vt 0.343750 0.031250
vt 0.585938 0.906250
vt 0.573927 0.855590
vt 0.551047 0.855590
vt 0.487342 0.805265
vt 0.559514 0.805265
vt 0.320312 0.007812
vt 0.539062 0.906250
vt 0.495809 0.855590
vt 0.481395 0.805265
vt 0.406250 0.757812
vt 0.460938 0.906250
vt 0.417690 0.855590
vt 0.472928 0.855590
vt 0.409223 0.805265
vt 0.289062 0.000000
vt 0.863452 0.855763
vt 0.820312 0.906250
vt 0.808253 0.855763
vt 0.799792 0.805473
vt 0.871913 0.805473
vt 0.289062 0.125000
vt 0.320312 0.117188
vt 0.785388 0.855763
vt 0.721728 0.805473
vt 0.793850 0.805473
vt 0.343750 0.093750
vt 0.773438 0.906250
vt 0.730189 0.855763
vt 0.715786 0.805473
vt 0.695312 0.906250
vt 0.652126 0.855763
vt 0.707325 0.855763
vt 0.643665 0.805473
vt 0.637647 0.805318
vt 0.617188 0.906250
vt 0.573938 0.855646
vt 0.629180 0.855646
vt 0.565471 0.805318
vt 0.551056 0.855646
vt 0.487347 0.805318
vt 0.559524 0.805318
vt 0.495815 0.855646
vt 0.472933 0.855646
vt 0.409223 0.805318
vt 0.481400 0.805318
vt 0.417691 0.855646
vt 0.872043 0.805389
vt 0.851562 0.906250
vt 0.808328 0.855722
vt 0.863575 0.855722
vt 0.799860 0.805389
vt 0.793913 0.805389
vt 0.730198 0.855722
vt 0.785444 0.855722
vt 0.721729 0.805389
vt 0.715782 0.805389
vt 0.652067 0.855722
vt 0.643599 0.805389
vt 0.707314 0.855722
vt 0.257738 0.031278
vt 0.000000 0.046898
vt 0.000000 0.031278
vt 0.257738 0.046898
vt 0.000000 0.062519
vt 0.257738 0.062519
vt 0.000000 0.078139
vt 0.257738 0.093669
vt 0.000000 0.093759
vt 0.257738 0.109380
vt -0.000000 0.109380
vt -0.000000 0.125000
vt 0.257738 0.000037
vt 0.000000 0.015658
vt 0.000000 0.000037
vt 0.257738 0.015658
vt 0.257813 0.093750
vt -0.000000 0.109375
vt 0.000000 0.093750
vt 0.257813 0.109375
vt -0.000000 0.125000
vt 0.257813 -0.000000
vt 0.000000 0.015625
vt 0.000000 -0.000000
vt 0.257813 0.015625
vt 0.000000 0.031250
vt 0.257813 0.031341
vt 0.000000 0.046875
vt 0.257813 0.046875
vt 0.000000 0.062500
vt 0.257813 0.062500
vt -0.000000 0.078125
vt 0.257813 0.078125
vt 0.273190 0.049186
vt 0.287802 0.054708
vt 0.273190 0.060231
vt 0.273190 0.075851
vt 0.257738 0.078139
vt 0.273190 0.064806
vt 0.287802 0.070329
vt 0.273192 0.080413
vt 0.287808 0.085923
vt 0.273202 0.091458
vt 0.273179 0.096034
vt 0.287795 0.101544
vt 0.273188 0.107079
vt 0.273190 0.111667
vt 0.287802 0.117190
vt 0.273190 0.122712
vt 0.257738 0.125000
vt 0.273190 0.002325
vt 0.287802 0.007847
vt 0.273190 0.013370
vt 0.273190 0.017945
vt 0.287791 0.023495
vt 0.273204 0.029081
vt 0.273177 0.033656
vt 0.287812 0.039116
vt 0.273190 0.044611
vt 0.273270 0.111663
vt 0.257813 0.125000
vt 0.287969 0.117150
vt 0.273270 0.122712
vt 0.273270 0.013337
vt 0.273270 0.002288
vt 0.287969 0.007850
vt 0.273268 0.017926
vt 0.287903 0.023581
vt 0.273272 0.029066
vt 0.273268 0.033642
vt 0.287868 0.039207
vt 0.273272 0.044600
vt 0.273270 0.049163
vt 0.287803 0.054725
vt 0.273270 0.060212
vt 0.273270 0.064788
vt 0.287803 0.070275
vt 0.273270 0.075837
vt 0.273270 0.080413
vt 0.287862 0.085819
vt 0.273256 0.091371
vt 0.273283 0.095947
vt 0.287910 0.101444
vt 0.273270 0.107087
vt 0.906250 0.351562
vt 0.890622 0.000000
vt 0.906244 0.000098
vt 0.890625 0.351562
vt 0.875000 0.000000
vt 1.000000 0.351562
vt 0.984355 0.000000
vt 0.999977 0.000000
vt 0.984375 0.351562
vt 0.968733 0.000000
vt 0.953125 0.351562
vt 0.953111 0.000000
vt 0.937488 0.000000
vt 0.937500 0.351562
vt 0.921866 0.000000
vt 0.921875 0.351562
vt 0.406250 0.632812
vt 0.507812 0.906250
vt 0.429688 0.906250
vt 0.742188 0.906250
vt 0.664062 0.906250
vt 0.875000 0.351562
vt 0.968750 0.351562
s 1
usemtl Material.002
f 29/1/1 3/2/1 9/3/1
f 31/1/2 7/2/2 17/3/2
f 33/1/3 5/2/3 13/3/3
f 35/1/4 1/2/4 21/3/4
f 13/4/5 22/5/5 27/6/5
f 24/7/2 56/8/2 2/9/2
f 8/10/1 42/11/1 15/12/1
f 19/13/4 49/14/4 20/15/4
f 7/16/5 25/17/5 17/18/5
f 14/19/5 27/6/5 25/17/5
f 32/16/3 14/20/3 7/21/3
f 38/18/3 13/3/3 14/20/3
f 36/16/1 10/20/1 1/21/1
f 37/18/1 9/3/1 10/20/1
f 26/22/5 10/23/5 9/24/5
f 25/17/5 28/25/5 26/22/5
f 18/1/5 9/24/5 3/26/5
f 17/18/5 26/22/5 18/1/5
f 16/14/1 55/27/1 6/28/1
f 11/11/3 45/29/3 12/30/3
f 4/31/4 50/12/4 19/13/4
f 20/15/4 54/28/4 8/8/4
f 23/32/2 52/15/2 24/7/2
f 2/33/3 47/34/3 11/11/3
f 28/25/5 1/35/5 10/23/5
f 27/6/5 21/36/5 28/25/5
f 34/16/4 22/20/4 5/21/4
f 40/18/4 21/3/4 22/20/4
f 30/16/2 18/20/2 3/21/2
f 39/18/2 17/3/2 18/20/2
f 4/37/6 29/38/6 12/39/6
f 8/40/6 31/41/6 20/42/6
f 6/43/6 33/32/6 16/44/6
f 2/45/6 35/36/6 24/46/6
f 2/45/6 37/47/6 36/35/6
f 12/39/6 37/47/6 11/48/6
f 8/40/6 38/7/6 32/49/6
f 16/44/6 38/7/6 15/50/6
f 4/37/6 39/51/6 30/52/6
f 20/42/6 39/51/6 19/53/6
f 6/43/6 40/5/6 34/54/6
f 24/46/6 40/5/6 23/55/6
f 47/48/6 52/46/6 48/56/6
f 53/37/6 46/57/6 50/53/6
f 45/39/6 48/56/6 46/57/6
f 41/58/6 44/44/6 42/50/6
f 46/57/6 43/59/6 41/58/6
f 49/42/6 42/50/6 54/40/6
f 50/53/6 41/58/6 49/42/6
f 43/59/6 55/43/6 44/44/6
f 48/56/6 51/55/6 43/59/6
f 6/60/2 51/13/2 23/32/2
f 12/30/3 53/61/3 4/27/3
f 15/12/1 44/30/1 16/14/1
f 117/62/7 58/63/8 57/64/2
f 59/65/9 60/66/10 58/63/8
f 61/67/11 62/68/3 60/66/10
f 63/69/12 64/70/13 62/71/3
f 87/72/14 65/73/15 64/70/13
f 91/74/16 66/64/4 65/73/15
f 95/62/17 67/63/18 66/64/4
f 99/65/19 68/66/20 67/63/18
f 69/67/21 70/68/1 68/66/20
f 106/69/22 71/70/23 70/71/1
f 110/72/24 72/73/25 71/70/23
f 114/74/26 57/64/2 72/73/25
f 116/75/27 76/76/28 73/77/29
f 115/78/30 77/79/6 74/80/31
f 73/77/29 59/65/9 117/62/7
f 116/75/27 74/81/31 75/82/32
f 75/83/32 80/84/33 76/85/28
f 74/80/31 77/79/6 78/86/34
f 76/85/28 61/67/11 59/65/9
f 74/87/31 79/88/35 75/83/32
f 80/89/33 63/90/12 61/67/11
f 78/91/34 82/92/36 79/93/35
f 79/93/35 83/94/37 80/89/33
f 78/86/34 77/79/6 81/95/38
f 82/96/36 84/97/39 85/98/40
f 82/96/36 86/99/41 83/100/37
f 81/101/38 77/79/6 84/102/39
f 83/100/37 87/72/14 63/69/12
f 85/103/40 90/104/42 86/105/41
f 84/102/39 77/79/6 88/106/43
f 86/105/41 91/74/16 87/72/14
f 84/107/39 89/108/44 85/103/40
f 88/106/43 77/79/6 92/78/45
f 90/109/42 95/62/17 91/74/16
f 88/110/43 93/111/46 89/112/44
f 89/112/44 94/113/47 90/109/42
f 94/114/47 99/65/19 95/62/17
f 92/115/45 97/116/48 93/117/46
f 93/117/46 98/118/49 94/114/47
f 92/78/45 77/79/6 96/80/50
f 97/119/48 102/120/51 98/121/49
f 96/80/50 77/79/6 100/86/52
f 98/121/49 69/67/21 99/65/19
f 96/87/50 101/122/53 97/119/48
f 101/123/53 105/124/54 102/125/51
f 100/86/52 77/79/6 103/95/55
f 102/125/51 106/90/22 69/67/21
f 100/91/52 104/126/56 101/123/53
f 105/127/54 110/72/24 106/69/22
f 103/128/55 108/129/57 104/130/56
f 104/130/56 109/131/58 105/127/54
f 103/101/55 77/79/6 107/102/59
f 109/132/58 114/74/26 110/72/24
f 107/107/59 112/133/60 108/134/57
f 108/134/57 113/135/61 109/132/58
f 107/102/59 77/79/6 111/106/62
f 113/136/61 116/137/27 73/138/29
f 111/106/62 77/79/6 115/78/30
f 113/136/61 117/62/7 114/74/26
f 111/110/62 116/137/27 112/139/60
f 146/140/63 119/141/64 118/142/65
f 149/143/66 120/144/67 119/141/68
f 137/145/69 121/146/70 120/144/67
f 121/146/70 169/147/71 122/148/72
f 122/148/72 142/149/73 123/150/4
f 142/149/73 124/151/74 123/150/4
f 144/152/75 125/153/76 124/154/74
f 126/155/77 118/142/65 125/153/78
f 159/156/79 128/157/2 127/158/64
f 161/159/80 129/160/67 128/157/2
f 151/161/69 130/162/81 129/163/67
f 153/164/82 131/165/72 130/162/83
f 168/166/84 132/167/85 131/165/72
f 155/168/86 133/169/74 132/167/85
f 157/170/75 134/171/1 133/169/74
f 135/172/87 127/158/78 134/171/1
f 148/173/88 137/145/69 149/143/66
f 148/173/88 147/174/89 136/175/90
f 137/145/69 138/176/91 139/177/92
f 136/178/90 147/179/89 138/176/91
f 138/180/91 169/147/71 139/177/92
f 138/180/91 147/181/89 140/182/93
f 140/183/94 142/149/73 169/147/71
f 140/183/94 147/184/95 141/185/96
f 141/186/96 147/187/95 143/188/97
f 141/186/96 144/189/75 142/149/73
f 143/190/97 147/191/95 145/192/98
f 144/152/75 145/192/98 126/155/77
f 145/193/98 147/194/95 173/195/99
f 145/193/98 146/140/63 126/155/77
f 173/196/100 147/197/89 148/198/88
f 173/196/100 149/143/66 146/140/63
f 160/199/101 151/200/69 161/159/80
f 160/199/101 171/201/102 150/202/103
f 151/161/69 152/203/104 153/164/82
f 150/204/103 171/205/102 152/203/104
f 152/206/104 168/166/84 153/164/82
f 152/206/104 171/207/102 170/208/105
f 170/209/106 155/168/86 168/166/84
f 170/209/106 171/210/107 154/211/108
f 154/212/108 171/213/107 156/214/109
f 154/212/108 157/170/75 155/168/86
f 156/215/109 171/216/107 158/217/110
f 157/170/75 158/217/110 135/172/87
f 158/218/110 171/219/107 172/220/111
f 135/172/87 172/220/111 159/156/112
f 172/221/113 171/222/102 160/223/101
f 159/156/79 160/223/101 161/159/80
f 146/224/65 162/225/114 159/226/65
f 163/227/115 164/228/115 162/225/115
f 165/229/116 166/230/116 164/231/116
f 167/232/117 168/233/118 166/230/117
f 168/233/118 140/234/119 170/235/119
f 140/234/120 171/236/6 170/235/120
f 147/237/121 172/238/122 171/236/6
f 173/239/123 159/226/65 172/238/122
f 29/1/1 30/26/1 3/2/1
f 31/1/2 32/26/2 7/2/2
f 33/1/3 34/26/3 5/2/3
f 35/1/4 36/26/4 1/2/4
f 13/4/5 5/54/5 22/5/5
f 24/7/2 52/15/2 56/8/2
f 8/10/1 54/33/1 42/11/1
f 19/13/4 50/12/4 49/14/4
f 7/16/5 14/19/5 25/17/5
f 14/19/5 13/4/5 27/6/5
f 32/16/3 38/18/3 14/20/3
f 38/18/3 33/1/3 13/3/3
f 36/16/1 37/18/1 10/20/1
f 37/18/1 29/1/1 9/3/1
f 26/22/5 28/25/5 10/23/5
f 25/17/5 27/6/5 28/25/5
f 18/1/5 26/22/5 9/24/5
f 17/18/5 25/17/5 26/22/5
f 16/14/1 44/30/1 55/27/1
f 11/11/3 47/34/3 45/29/3
f 4/31/4 53/10/4 50/12/4
f 20/15/4 49/14/4 54/28/4
f 23/32/2 51/13/2 52/15/2
f 2/33/3 56/240/3 47/34/3
f 28/25/5 21/36/5 1/35/5
f 27/6/5 22/5/5 21/36/5
f 34/16/4 40/18/4 22/20/4
f 40/18/4 35/1/4 21/3/4
f 30/16/2 39/18/2 18/20/2
f 39/18/2 31/1/2 17/3/2
f 4/37/6 30/52/6 29/38/6
f 8/40/6 32/49/6 31/41/6
f 6/43/6 34/54/6 33/32/6
f 2/45/6 36/35/6 35/36/6
f 2/45/6 11/48/6 37/47/6
f 12/39/6 29/38/6 37/47/6
f 8/40/6 15/50/6 38/7/6
f 16/44/6 33/32/6 38/7/6
f 4/37/6 19/53/6 39/51/6
f 20/42/6 31/41/6 39/51/6
f 6/43/6 23/55/6 40/5/6
f 24/46/6 35/36/6 40/5/6
f 47/48/6 56/45/6 52/46/6
f 53/37/6 45/39/6 46/57/6
f 45/39/6 47/48/6 48/56/6
f 41/58/6 43/59/6 44/44/6
f 46/57/6 48/56/6 43/59/6
f 49/42/6 41/58/6 42/50/6
f 50/53/6 46/57/6 41/58/6
f 43/59/6 51/55/6 55/43/6
f 48/56/6 52/46/6 51/55/6
f 6/60/2 55/31/2 51/13/2
f 12/30/3 45/29/3 53/61/3
f 15/12/1 42/11/1 44/30/1
f 117/62/7 59/65/9 58/63/8
f 59/65/9 61/67/11 60/66/10
f 61/67/11 63/90/12 62/68/3
f 63/69/12 87/72/14 64/70/13
f 87/72/14 91/74/16 65/73/15
f 91/74/16 95/62/17 66/64/4
f 95/62/17 99/65/19 67/63/18
f 99/65/19 69/67/21 68/66/20
f 69/67/21 106/90/22 70/68/1
f 106/69/22 110/72/24 71/70/23
f 110/72/24 114/74/26 72/73/25
f 114/74/26 117/62/7 57/64/2
f 116/75/27 75/82/32 76/76/28
f 73/77/29 76/76/28 59/65/9
f 116/75/27 115/115/30 74/81/31
f 75/83/32 79/88/35 80/84/33
f 76/85/28 80/84/33 61/67/11
f 74/87/31 78/241/34 79/88/35
f 80/89/33 83/94/37 63/90/12
f 78/91/34 81/242/38 82/92/36
f 79/93/35 82/92/36 83/94/37
f 82/96/36 81/128/38 84/97/39
f 82/96/36 85/98/40 86/99/41
f 83/100/37 86/99/41 87/72/14
f 85/103/40 89/108/44 90/104/42
f 86/105/41 90/104/42 91/74/16
f 84/107/39 88/243/43 89/108/44
f 90/109/42 94/113/47 95/62/17
f 88/110/43 92/244/45 93/111/46
f 89/112/44 93/111/46 94/113/47
f 94/114/47 98/118/49 99/65/19
f 92/115/45 96/81/50 97/116/48
f 93/117/46 97/116/48 98/118/49
f 97/119/48 101/122/53 102/120/51
f 98/121/49 102/120/51 69/67/21
f 96/87/50 100/241/52 101/122/53
f 101/123/53 104/126/56 105/124/54
f 102/125/51 105/124/54 106/90/22
f 100/91/52 103/242/55 104/126/56
f 105/127/54 109/131/58 110/72/24
f 103/128/55 107/97/59 108/129/57
f 104/130/56 108/129/57 109/131/58
f 109/132/58 113/135/61 114/74/26
f 107/107/59 111/243/62 112/133/60
f 108/134/57 112/133/60 113/135/61
f 113/136/61 112/139/60 116/137/27
f 113/136/61 73/138/29 117/62/7
f 111/110/62 115/244/30 116/137/27
f 146/140/63 149/143/66 119/141/64
f 149/143/66 137/145/69 120/144/67
f 137/145/69 139/177/92 121/146/70
f 121/146/70 139/177/92 169/147/71
f 122/148/72 169/147/71 142/149/73
f 142/149/73 144/189/75 124/151/74
f 144/152/75 126/155/77 125/153/76
f 126/155/77 146/140/63 118/142/65
f 159/156/79 161/159/80 128/157/2
f 161/159/80 151/200/69 129/160/67
f 151/161/69 153/164/82 130/162/81
f 153/164/82 168/166/84 131/165/72
f 168/166/84 155/168/86 132/167/85
f 155/168/86 157/170/75 133/169/74
f 157/170/75 135/172/87 134/171/1
f 135/172/87 159/156/112 127/158/78
f 148/173/88 136/175/90 137/145/69
f 137/145/69 136/178/90 138/176/91
f 138/180/91 140/182/93 169/147/71
f 140/183/94 141/185/96 142/149/73
f 141/186/96 143/188/97 144/189/75
f 144/152/75 143/190/97 145/192/98
f 145/193/98 173/195/99 146/140/63
f 173/196/100 148/198/88 149/143/66
f 160/199/101 150/202/124 151/200/69
f 151/161/69 150/204/124 152/203/104
f 152/206/104 170/208/105 168/166/84
f 170/209/106 154/211/108 155/168/86
f 154/212/108 156/214/109 157/170/75
f 157/170/75 156/215/109 158/217/110
f 135/172/87 158/218/110 172/220/111
f 159/156/79 172/221/113 160/223/101
f 146/224/65 163/227/114 162/225/114
f 163/227/115 165/245/115 164/228/115
f 165/229/116 167/232/116 166/230/116
f 167/232/117 169/246/125 168/233/118
f 168/233/118 169/246/125 140/234/119
f 140/234/120 147/237/121 171/236/6
f 147/237/121 173/239/123 172/238/122
f 173/239/123 146/224/65 159/226/65
